HIERARCHY
ROOT Hips
{
	OFFSET 0.00 0.00 0.00
	CHANNELS 6 Xposition Yposition Zposition Yrotation Xrotation Zrotation
	JOINT Chest
	{
		OFFSET	0.0000	9.2263	1.5771
		CHANNELS 3 Yrotation Xrotation Zrotation
		JOINT Chest2
		{
			OFFSET	0.0000	16.2540	-0.1656
			CHANNELS 3 Yrotation Xrotation Zrotation
			JOINT Chest3
			{
				OFFSET	0.0000	13.6396	-1.2923
				CHANNELS 3 Yrotation Xrotation Zrotation
				JOINT Neck
				{
					OFFSET	0.0000	13.8774	-4.3542
					CHANNELS 3 Yrotation Xrotation Zrotation
					JOINT Head
					{
						OFFSET	0.0000	4.0266	0.8585
						CHANNELS 3 Yrotation Xrotation Zrotation
						End Site
						{
							OFFSET 0.0000 17.8866 0.1231
						}
					}
				}
				JOINT LeftCollar
				{
					OFFSET	6.1442	10.1870	-3.7932
					CHANNELS 3 Yrotation Xrotation Zrotation
					JOINT LeftShoulder
					{
						OFFSET	12.3191	-1.1130	-1.7935
						CHANNELS 3 Yrotation Xrotation Zrotation
						JOINT LeftElbow
						{
							OFFSET	27.6870	0.0000	0.0000
							CHANNELS 3 Yrotation Xrotation Zrotation
							JOINT LeftHand
							{
								OFFSET	27.8738	0.0000	0.0000
								CHANNELS 3 Yrotation Xrotation Zrotation
								JOINT LeftFinger0
								{
									OFFSET	3.1460	-1.0029	4.0023
									CHANNELS 3 Yrotation Xrotation Zrotation
									JOINT LeftFinger01
									{
										OFFSET	4.3298	-1.0029	2.0796
										CHANNELS 3 Yrotation Xrotation Zrotation
										End Site
										{
											OFFSET 3.7362 -2.0137 1.7261
										}
									}
								}
								JOINT LeftFinger1
								{
									OFFSET	11.5739	0.0000	0.0000
									CHANNELS 3 Yrotation Xrotation Zrotation
									JOINT LeftFinger11
									{
										OFFSET	4.0578	0.0000	0.0000
										CHANNELS 3 Yrotation Xrotation Zrotation
										End Site
										{
											OFFSET 4.0431 0.0000 0.0000
										}
									}
								}
							}
						}
					}
				}
				JOINT RightCollar
				{
					OFFSET	-6.1402	10.1870	-3.7932
					CHANNELS 3 Yrotation Xrotation Zrotation
					JOINT RightShoulder
					{
						OFFSET	-12.3231	-1.1130	-1.7935
						CHANNELS 3 Yrotation Xrotation Zrotation
						JOINT RightElbow
						{
							OFFSET	-27.6870	0.0000	0.0000
							CHANNELS 3 Yrotation Xrotation Zrotation
							JOINT RightHand
							{
								OFFSET	-27.8738	0.0000	0.0000
								CHANNELS 3 Yrotation Xrotation Zrotation
								JOINT RightFinger0
								{
									OFFSET	-3.1758	-1.0029	3.9820
									CHANNELS 3 Yrotation Xrotation Zrotation
									JOINT RightFinger01
									{
										OFFSET	-4.2938	-1.0019	2.1232
										CHANNELS 3 Yrotation Xrotation Zrotation
										End Site
										{
											OFFSET -3.7424 -2.0137 1.7029
										}
									}
								}
								JOINT RightFinger1
								{
									OFFSET	-11.5739	0.0000	0.0000
									CHANNELS 3 Yrotation Xrotation Zrotation
									JOINT RightFinger11
									{
										OFFSET	-4.0578	0.0000	0.0000
										CHANNELS 3 Yrotation Xrotation Zrotation
										End Site
										{
											OFFSET -4.0431 0.0000 0.0000
										}
									}
								}
							}
						}
					}
				}
			}
		}
	}
	JOINT LeftHip
	{
		OFFSET	9.6338	-3.2733	0.0000
		CHANNELS 3 Yrotation Xrotation Zrotation
		JOINT LeftKnee
		{
			OFFSET	0.0000	-46.7251	-1.7300
			CHANNELS 3 Yrotation Xrotation Zrotation
			JOINT LeftAnkle
			{
				OFFSET	0.0126	-34.1943	-0.8477
				CHANNELS 3 Yrotation Xrotation Zrotation
				JOINT LeftToe
				{
					OFFSET	-0.1833	-12.0640	8.2823
					CHANNELS 3 Yrotation Xrotation Zrotation
					End Site
					{
						OFFSET 0.0000 0.1809 10.3623
					}
				}
			}
		}
	}
	JOINT RightHip
	{
		OFFSET	-9.6338	-3.2733	0.0000
		CHANNELS 3 Yrotation Xrotation Zrotation
		JOINT RightKnee
		{
			OFFSET	0.0000	-46.7251	-1.7300
			CHANNELS 3 Yrotation Xrotation Zrotation
			JOINT RightAnkle
			{
				OFFSET	0.0126	-34.1943	-0.8477
				CHANNELS 3 Yrotation Xrotation Zrotation
				JOINT RightToe
				{
					OFFSET	-0.1833	-12.0640	8.2823
					CHANNELS 3 Yrotation Xrotation Zrotation
					End Site
					{
						OFFSET 0.0032 0.1809 10.3623
					}
				}
			}
		}
	}
}
MOTION
Frames: 16
Frame Time: 0.0333333
0.0549 95.0376 0.3343 -0.1092 -1.5212 -1.0582 -0.1265 0.9679 0.0071 -2.4787 1.0200 0.1020 -2.4750 1.0149 0.1455 0.8814 -2.7498 -1.4698 -1.5315 5.5756 3.5456 7.3814 -0.3538 -0.5037 -24.5634 2.2377 -71.5571 -29.2950 0.0000 0.0000 -8.1640 13.8953 78.6161 0.0000 -0.0000 0.0000 0.0000 -0.0000 0.0000 0.0000 -0.0000 0.0000 0.0000 -0.0000 0.0000 2.4186 0.9939 -3.6727 25.5195 -2.4484 73.7466 27.0960 0.0000 -0.0000 -1.9516 14.8008 -88.6590 0.0000 -0.0000 0.0000 0.0000 -0.0000 0.0000 0.0000 -0.0000 0.0000 0.0000 -0.0000 0.0000 4.1658 -8.4088 1.9357 10.1831 23.6607 5.0683 2.9246 -13.6543 -4.6144 -0.0000 -0.4642 0.0000 -13.5847 -8.7702 -4.2599 -4.3385 18.7728 -2.7715 -4.5661 -7.3774 7.4074 0.0000 -0.0000 0.0000 
0.2286 95.0034 0.2994 -0.1248 -1.5442 -1.1528 -0.1117 1.0054 -0.0055 -2.4592 1.0897 0.0868 -2.4556 1.0852 0.1317 0.8597 -2.7193 -1.4190 -1.5465 5.5324 3.5907 7.2417 -0.3449 -0.4404 -24.6908 2.1641 -71.6026 -29.2731 -0.0000 -0.0000 -8.2275 13.8811 78.5924 0.0000 -0.0000 0.0000 0.0000 -0.0000 0.0000 0.0000 -0.0000 0.0000 0.0000 -0.0000 0.0000 2.6638 1.0402 -3.5212 25.5980 -2.4434 73.6306 27.1559 0.0000 -0.0000 -1.9842 14.7571 -88.7219 0.0000 -0.0000 0.0000 0.0000 -0.0000 0.0000 0.0000 -0.0000 0.0000 0.0000 -0.0000 0.0000 4.2129 -8.5656 1.9340 10.1496 24.0483 5.0660 2.9482 -13.8924 -4.5021 -0.0000 -0.4458 0.0000 -13.6861 -8.7990 -4.2605 -4.3686 18.7881 -2.8398 -4.4358 -7.3159 7.5244 0.0000 -0.0000 0.0000 
0.3968 94.9763 0.2884 -0.1294 -1.5708 -1.2392 -0.0966 1.0376 -0.0197 -2.4350 1.1509 0.0694 -2.4315 1.1470 0.1156 0.8410 -2.6658 -1.3742 -1.5593 5.5346 3.6338 7.1798 -0.3412 -0.4001 -24.7307 2.1252 -71.6107 -29.2436 0.0000 0.0000 -8.3064 13.8737 78.5924 0.0000 -0.0000 0.0000 0.0000 -0.0000 0.0000 0.0000 -0.0000 0.0000 0.0000 -0.0000 0.0000 2.8101 1.0670 -3.4459 25.6690 -2.4534 73.6194 27.1882 -0.0000 0.0000 -2.1449 14.7084 -88.7396 0.0000 -0.0000 0.0000 0.0000 -0.0000 0.0000 0.0000 -0.0000 0.0000 0.0000 -0.0000 0.0000 4.2566 -8.6717 1.9329 10.0897 24.3669 5.0309 2.9789 -14.1049 -4.3809 0.0000 -0.4395 0.0000 -13.7775 -8.7829 -4.2702 -4.4193 18.7489 -2.9114 -4.3063 -7.2416 7.6444 -0.0000 -0.0000 0.0000 
0.5467 94.9700 0.3433 -0.1059 -1.6154 -1.2968 -0.0820 1.0570 -0.0379 -2.4004 1.1915 0.0447 -2.3970 1.1886 0.0921 0.8344 -2.5491 -1.3568 -1.5659 5.6430 3.6722 7.1623 -0.3388 -0.3953 -24.7184 2.1184 -71.5761 -29.2084 0.0000 0.0000 -8.3873 13.8805 78.6073 0.0000 -0.0000 0.0000 0.0000 -0.0000 0.0000 0.0000 -0.0000 0.0000 0.0000 -0.0000 0.0000 2.8962 1.0830 -3.4134 25.7474 -2.4628 73.6739 27.2125 -0.0000 -0.0000 -2.3771 14.6597 -88.7284 0.0000 -0.0000 0.0000 0.0000 -0.0000 0.0000 0.0000 -0.0000 0.0000 0.0000 -0.0000 0.0000 4.2624 -8.6291 1.9321 9.9810 24.4966 4.9105 3.0344 -14.2472 -4.2409 0.0000 -0.4544 0.0000 -13.8292 -8.6376 -4.3123 -4.5199 18.5668 -2.9886 -4.1925 -7.1370 7.7723 -0.0000 -0.0000 -0.0000 
0.6849 94.9570 0.3994 -0.0754 -1.6702 -1.3444 -0.0678 1.0790 -0.0594 -2.3683 1.2369 0.0148 -2.3650 1.2352 0.0636 0.8302 -2.4160 -1.3471 -1.5746 5.7237 3.7162 7.1456 -0.3358 -0.4122 -24.6483 2.1391 -71.5176 -29.1655 -0.0000 -0.0000 -8.4614 13.9078 78.6418 0.0000 -0.0000 0.0000 0.0000 -0.0000 0.0000 0.0000 -0.0000 0.0000 0.0000 -0.0000 0.0000 2.9544 1.0956 -3.3956 25.8286 -2.4535 73.7662 27.2455 -0.0000 0.0000 -2.6385 14.6138 -88.7026 0.0000 -0.0000 0.0000 0.0000 -0.0000 0.0000 0.0000 -0.0000 0.0000 0.0000 -0.0000 0.0000 4.1596 -8.5841 1.9334 9.9773 24.6507 4.8206 3.0860 -14.4022 -4.1238 0.0000 -0.4713 0.0000 -13.8648 -8.5135 -4.3613 -4.5841 18.4679 -3.0570 -4.1348 -7.0837 7.9023 -0.0000 -0.0000 0.0000 
0.8121 94.9279 0.4539 -0.0362 -1.7287 -1.3950 -0.0513 1.1030 -0.0857 -2.3342 1.2855 -0.0208 -2.3310 1.2852 0.0296 0.8209 -2.2620 -1.3240 -1.5868 5.7734 3.7588 7.0638 -0.3304 -0.4094 -24.5078 2.1707 -71.4867 -29.1131 -0.0000 -0.0000 -8.5197 13.9545 78.7029 0.0000 -0.0000 0.0000 0.0000 -0.0000 0.0000 0.0000 -0.0000 0.0000 0.0000 -0.0000 0.0000 3.0379 1.1163 -3.3506 25.8914 -2.4051 73.8498 27.3052 -0.0000 -0.0000 -2.8683 14.5710 -88.6829 0.0000 -0.0000 0.0000 0.0000 -0.0000 0.0000 0.0000 -0.0000 0.0000 0.0000 -0.0000 0.0000 3.9253 -8.5801 1.9409 10.1221 24.9053 4.8086 3.1286 -14.6117 -4.0540 0.0000 -0.4852 0.0000 -13.8879 -8.4459 -4.4024 -4.6075 18.5237 -3.1228 -4.1406 -7.1203 8.0409 -0.0000 -0.0000 -0.0000 
0.9286 94.8789 0.5045 0.0097 -1.7852 -1.4579 -0.0309 1.1278 -0.1171 -2.2956 1.3352 -0.0609 -2.2924 1.3365 -0.0090 0.8009 -2.0856 -1.2707 -1.6024 5.7988 3.7922 6.8651 -0.3219 -0.3380 -24.2784 2.1949 -71.5435 -29.0503 -0.0000 -0.0000 -8.5575 14.0110 78.7968 0.0000 -0.0000 0.0000 0.0000 -0.0000 0.0000 0.0000 -0.0000 0.0000 0.0000 -0.0000 0.0000 3.1936 1.1542 -3.2468 25.9051 -2.3056 73.8867 27.4009 -0.0000 0.0000 -3.0211 14.5285 -88.6837 0.0000 -0.0000 0.0000 0.0000 -0.0000 0.0000 0.0000 -0.0000 0.0000 0.0000 -0.0000 0.0000 3.5972 -8.6390 1.9572 10.3929 25.2894 4.8899 3.1593 -14.8908 -4.0393 -0.0000 -0.4954 0.0000 -13.9127 -8.4482 -4.4243 -4.5967 18.7507 -3.1914 -4.1903 -7.2549 8.1875 -0.0000 -0.0000 -0.0000 
1.0338 94.8128 0.5506 0.0575 -1.8378 -1.5332 -0.0068 1.1524 -0.1519 -2.2534 1.3833 -0.1035 -2.2500 1.3865 -0.0500 0.7691 -1.8897 -1.1826 -1.6195 5.8150 3.8110 6.5415 -0.3103 -0.1738 -23.9564 2.2032 -71.7222 -28.9789 0.0000 0.0000 -8.5750 14.0638 78.9215 0.0000 -0.0000 0.0000 0.0000 -0.0000 0.0000 0.0000 -0.0000 0.0000 0.0000 -0.0000 0.0000 3.4412 1.2123 -3.0759 25.8479 -2.1568 73.8612 27.5287 0.0000 -0.0000 -3.0839 14.4827 -88.7055 0.0000 -0.0000 0.0000 0.0000 -0.0000 0.0000 0.0000 -0.0000 0.0000 0.0000 -0.0000 0.0000 3.2573 -8.7563 1.9813 10.7099 25.7848 5.0410 3.1816 -15.2287 -4.0686 0.0000 -0.4949 -0.0000 -13.9603 -8.5144 -4.4244 -4.5580 19.1220 -3.2658 -4.2529 -7.4720 8.3374 -0.0000 -0.0001 -0.0000 
1.1269 94.7349 0.5928 0.1018 -1.8869 -1.6128 0.0185 1.1756 -0.1876 -2.2119 1.4278 -0.1459 -2.2084 1.4329 -0.0911 0.7294 -1.6800 -1.0691 -1.6361 5.8400 3.8140 6.1327 -0.2948 0.0647 -23.5702 2.2022 -72.0090 -28.9044 -0.0000 -0.0000 -8.5748 14.1013 79.0626 0.0000 -0.0000 0.0000 0.0000 -0.0000 0.0000 0.0000 -0.0000 0.0000 0.0000 -0.0000 0.0000 3.7716 1.2868 -2.8513 25.7222 -1.9728 73.7783 27.6768 -0.0000 -0.0000 -3.0716 14.4326 -88.7375 0.0000 -0.0000 0.0000 0.0000 -0.0000 0.0000 0.0000 -0.0000 0.0000 0.0000 -0.0000 0.0000 2.9841 -8.9113 2.0095 10.9831 26.3466 5.2154 3.2042 -15.6002 -4.1193 0.0000 -0.4857 0.0000 -14.0410 -8.6281 -4.4093 -4.4978 19.5908 -3.3458 -4.3059 -7.7459 8.4845 0.0000 -0.0001 -0.0000 
1.2068 94.6509 0.6319 0.1403 -1.9324 -1.6860 0.0420 1.1963 -0.2213 -2.1773 1.4669 -0.1867 -2.1737 1.4738 -0.1306 0.6882 -1.4638 -0.9482 -1.6505 5.8871 3.8046 5.7042 -0.2754 0.3243 -23.1783 2.2086 -72.3483 -28.8346 0.0000 -0.0000 -8.5589 14.1188 79.1973 0.0000 -0.0000 0.0000 0.0000 -0.0000 0.0000 0.0000 -0.0000 0.0000 0.0000 -0.0000 0.0000 4.1584 1.3713 -2.5947 25.5548 -1.7700 73.6493 27.8338 -0.0000 -0.0000 -3.0100 14.3818 -88.7640 0.0000 -0.0000 0.0000 0.0000 -0.0000 0.0000 0.0000 -0.0000 0.0000 0.0000 -0.0000 0.0000 2.8141 -9.0834 2.0370 11.1600 26.9321 5.3717 3.2345 -15.9812 -4.1713 0.0000 -0.4721 0.0000 -14.1393 -8.7756 -4.3902 -4.4330 20.1213 -3.4308 -4.3430 -8.0566 8.6253 0.0000 -0.0000 0.0000 
1.2726 94.5644 0.6684 0.1729 -1.9731 -1.7448 0.0609 1.2134 -0.2517 -2.1544 1.4996 -0.2257 -2.1509 1.5081 -0.1685 0.6516 -1.2471 -0.8369 -1.6614 5.9592 3.7888 5.3128 -0.2535 0.5456 -22.8447 2.2386 -72.6707 -28.7758 0.0000 -0.0000 -8.5274 14.1177 79.3042 0.0000 -0.0000 0.0000 0.0000 -0.0000 0.0000 0.0000 -0.0000 0.0000 0.0000 -0.0000 0.0000 4.5758 1.4612 -2.3220 25.3829 -1.5582 73.4794 27.9963 -0.0000 0.0000 -2.9207 14.3383 -88.7722 0.0000 -0.0000 0.0000 0.0000 -0.0000 0.0000 0.0000 -0.0000 0.0000 0.0000 -0.0000 0.0000 2.7422 -9.2592 2.0610 11.2363 27.5114 5.4888 3.2723 -16.3545 -4.2136 0.0000 -0.4588 -0.0000 -14.2202 -8.9468 -4.3763 -4.3941 20.6892 -3.5226 -4.3680 -8.3905 8.7593 0.0000 -0.0000 -0.0000 
1.3231 94.4773 0.7022 0.2005 -2.0071 -1.7868 0.0741 1.2259 -0.2790 -2.1449 1.5250 -0.2649 -2.1417 1.5349 -0.2066 0.6226 -1.0329 -0.7441 -1.6677 6.0472 3.7725 4.9808 -0.2309 0.6939 -22.6090 2.3002 -72.9281 -28.7299 -0.0000 0.0000 -8.4796 14.1023 79.3730 0.0000 -0.0000 0.0000 0.0000 -0.0000 0.0000 0.0000 -0.0000 0.0000 0.0000 -0.0000 0.0000 5.0111 1.5553 -2.0356 25.2369 -1.3370 73.2608 28.1700 -0.0000 0.0000 -2.8152 14.3110 -88.7546 0.0000 -0.0000 0.0000 0.0000 -0.0000 0.0000 0.0000 -0.0000 0.0000 0.0000 -0.0000 0.0000 2.7469 -9.4355 2.0817 11.2323 28.0727 5.5657 3.3114 -16.7132 -4.2449 -0.0000 -0.4503 0.0000 -14.2514 -9.1354 -4.3708 -4.4122 21.2794 -3.6255 -4.3829 -8.7391 8.8871 -0.0000 -0.0000 -0.0000 
1.3581 94.3903 0.7328 0.2218 -2.0337 -1.8150 0.0823 1.2334 -0.3054 -2.1461 1.5431 -0.3068 -2.1435 1.5545 -0.2476 0.6009 -0.8219 -0.6674 -1.6673 6.1332 3.7579 4.6900 -0.2084 0.7744 -22.4684 2.3898 -73.1129 -28.6937 -0.0000 -0.0000 -8.4153 14.0748 79.4080 0.0000 -0.0000 0.0000 0.0000 -0.0000 0.0000 0.0000 -0.0000 0.0000 0.0000 -0.0000 0.0000 5.4660 1.6558 -1.7275 25.1309 -1.1003 72.9778 28.3650 -0.0000 0.0000 -2.6975 14.3054 -88.7101 0.0000 -0.0000 0.0000 0.0000 -0.0000 0.0000 0.0000 -0.0000 0.0000 0.0000 -0.0000 0.0000 2.8099 -9.6127 2.1018 11.1695 28.6143 5.6113 3.3461 -17.0561 -4.2690 0.0000 -0.4463 -0.0000 -14.2246 -9.3370 -4.3708 -4.5022 21.8817 -3.7435 -4.3810 -9.0966 9.0081 -0.0000 -0.0001 -0.0000 
1.3789 94.3033 0.7595 0.2336 -2.0534 -1.8350 0.0875 1.2368 -0.3329 -2.1526 1.5550 -0.3535 -2.1508 1.5679 -0.2936 0.5835 -0.6141 -0.5978 -1.6576 6.1980 3.7418 4.3969 -0.1848 0.8235 -22.3833 2.4943 -73.2543 -28.6611 -0.0000 -0.0000 -8.3363 14.0329 79.4238 0.0000 -0.0000 0.0000 0.0000 -0.0000 0.0000 0.0000 -0.0000 0.0000 0.0000 -0.0000 0.0000 5.9484 1.7640 -1.3889 25.0647 -0.8458 72.6189 28.5871 0.0000 -0.0000 -2.5725 14.3201 -88.6416 0.0000 -0.0000 0.0000 0.0000 -0.0000 0.0000 0.0000 -0.0000 0.0000 0.0000 -0.0000 0.0000 2.9173 -9.7934 2.1238 11.0668 29.1419 5.6394 3.3744 -17.3868 -4.2922 -0.0000 -0.4450 0.0000 -14.1573 -9.5491 -4.3705 -4.6545 22.4874 -3.8773 -4.3521 -9.4574 9.1205 -0.0000 -0.0000 -0.0000 
1.3887 94.2163 0.7814 0.2321 -2.0673 -1.8520 0.0922 1.2376 -0.3625 -2.1587 1.5628 -0.4044 -2.1577 1.5775 -0.3440 0.5680 -0.4109 -0.5272 -1.6366 6.2280 3.7170 4.0596 -0.1584 0.8848 -22.2994 2.5957 -73.3945 -28.6274 0.0000 0.0000 -8.2473 13.9713 79.4365 0.0000 -0.0000 0.0000 0.0000 -0.0000 0.0000 0.0000 -0.0000 0.0000 0.0000 -0.0000 0.0000 6.4574 1.8779 -1.0230 25.0353 -0.5845 72.1889 28.8308 -0.0000 0.0000 -2.4554 14.3460 -88.5546 0.0000 -0.0000 0.0000 0.0000 -0.0000 0.0000 0.0000 -0.0000 0.0000 0.0000 -0.0000 0.0000 3.0496 -9.9782 2.1478 10.9502 29.6573 5.6673 3.3978 -17.7066 -4.3215 0.0000 -0.4444 0.0000 -14.0806 -9.7702 -4.3647 -4.8353 23.0888 -4.0201 -4.2941 -9.8156 9.2215 -0.0000 -0.0000 0.0000 
1.3908 94.1306 0.7975 0.2148 -2.0766 -1.8692 0.0978 1.2389 -0.3930 -2.1609 1.5699 -0.4559 -2.1605 1.5867 -0.3951 0.5537 -0.2162 -0.4548 -1.6046 6.2204 3.6754 3.6628 -0.1275 0.9814 -22.1765 2.6769 -73.5603 -28.5925 0.0000 -0.0000 -8.1557 13.8858 79.4561 0.0000 -0.0000 0.0000 0.0000 -0.0000 0.0000 0.0000 -0.0000 0.0000 0.0000 -0.0000 0.0000 6.9735 1.9908 -0.6504 25.0466 -0.3419 71.7147 29.0767 -0.0000 0.0000 -2.3753 14.3694 -88.4560 0.0000 -0.0000 0.0000 0.0000 -0.0000 0.0000 0.0000 -0.0000 0.0000 0.0000 -0.0000 0.0000 3.1759 -10.1641 2.1720 10.8580 30.1548 5.7144 3.4187 -18.0120 -4.3645 -0.0000 -0.4436 0.0000 -14.0227 -9.9959 -4.3509 -4.9978 23.6725 -4.1567 -4.2201 -10.1613 9.3067 -0.0000 -0.0000 0.0000 
